<svg xmlns="http://www.w3.org/2000/svg" viewBox="0 0 418.92 249.73"><defs><style>.cls-1{fill:#906d62;}.cls-2{fill:#221915;}.cls-3{fill:#8f6c62;}.cls-4{fill:#060403;}.cls-5{fill:#070404;}.cls-6{fill:#030202;}.cls-7{fill:#0b0706;}.cls-8{fill:#030302;}.cls-9{fill:#040302;}.cls-10{fill:#0f0908;}.cls-11{fill:#0d0807;}.cls-12{fill:#0e0907;}.cls-13{fill:#3a2c27;}.cls-14{fill:#0f0a08;}.cls-15{fill:#130d0b;}.cls-16{fill:#120c0a;}.cls-17{fill:#110b09;}.cls-18{fill:#110c09;}.cls-19{fill:#140d0b;}.cls-20{fill:#150e0c;}.cls-21{fill:#100b09;}.cls-22{fill:#8c6a60;}.cls-23{fill:#8e6b61;}.cls-24{fill:#8e6c61;}</style></defs><g id="Layer_2" data-name="Layer 2"><g id="Layer_1-2" data-name="Layer 1"><path class="cls-1" d="M2,249.73l6.69-3.88c-2.59-1.49-5.05-2.94-7.55-4.32a1.49,1.49,0,0,1-.92-1.59c.06-1.43,0-2.88,0-4.31A1.36,1.36,0,0,1,1,234.22c2.51-1.39,5-2.84,7.65-4.37-2.53-1.48-4.88-2.91-7.31-4.23a1.89,1.89,0,0,1-1.17-2.05,32.7,32.7,0,0,0,0-4,1.43,1.43,0,0,1,.88-1.49c2.51-1.39,5-2.84,7.59-4.34-2.63-1.52-5.09-3-7.59-4.35A1.4,1.4,0,0,1,.19,208q.09-2.1,0-4.2a1.56,1.56,0,0,1,1-1.68c2.45-1.34,4.85-2.76,7.41-4.23a8.46,8.46,0,0,0-.77-.59C5.51,195.9,3.22,194.6,1,193.2a1.83,1.83,0,0,1-.75-1.27,38.37,38.37,0,0,1,0-4.55A1.87,1.87,0,0,1,1,186.1c2.08-1.27,4.21-2.45,6.32-3.66l1.36-.8c-2.61-1.5-5.07-3-7.57-4.33a1.48,1.48,0,0,1-.89-1.59q.09-2.16,0-4.32A1.34,1.34,0,0,1,1,170c2.17-1.2,4.31-2.44,6.45-3.68.34-.19.65-.41,1.14-.72-2.22-1.31-4.23-2.68-6.39-3.73a3.09,3.09,0,0,1-2-3.62c.18-1.29-.29-2.84.28-3.85s2.08-1.36,3.18-2l5-2.9c-2.6-1.52-5-3-7.52-4.37a1.49,1.49,0,0,1-.94-1.58c.09-1.74-.48-3.81.28-5.15s2.78-1.85,4.26-2.72c1.27-.74,2.55-1.45,3.93-2.24C6,131.9,3.48,130.43.94,129a1.25,1.25,0,0,1-.75-1.3q.08-2.28,0-4.56a1.24,1.24,0,0,1,.77-1.3c2.5-1.4,5-2.85,7.6-4.35-.34-.25-.56-.45-.81-.6C5.52,115.58,3.3,114.23,1,113a1.44,1.44,0,0,1-.85-1.51c0-1.44.06-2.88,0-4.31a1.43,1.43,0,0,1,.89-1.49c2.1-1.15,4.16-2.37,6.24-3.56l1.33-.79C6,99.77,3.49,98.3,1,96.89a1.25,1.25,0,0,1-.77-1.3c0-1.47.06-3,0-4.43A1.4,1.4,0,0,1,1,89.66c2.47-1.37,4.92-2.8,7.52-4.29-.33-.24-.55-.44-.79-.59-2.27-1.34-4.56-2.65-6.79-4a1.81,1.81,0,0,1-.74-1.27c-.07-1.76-.59-3.84.17-5.18s2.82-1.92,4.32-2.81C6,70.72,7.26,70,8.66,69.17c-2.62-1.52-5.07-3-7.57-4.38a1.49,1.49,0,0,1-.9-1.6,37,37,0,0,0,0-4.08,1.66,1.66,0,0,1,1.06-1.75C3.68,56,6.08,54.59,8.66,53.11c-2.61-1.51-5.06-3-7.55-4.32a1.49,1.49,0,0,1-.92-1.58c.09-1.75-.49-3.82.27-5.16s2.8-1.83,4.28-2.69L8.65,37.1c-1.77-1-3.37-2-5-2.93C2.53,33.48,1,33,.38,32s0-2.57-.21-3.87c-.23-1.73.44-2.66,2-3.41,2.18-1.06,4.23-2.38,6.52-3.7C6.33,19.63,4.2,18.28,2,17.16a2.63,2.63,0,0,1-1.77-3,15.16,15.16,0,0,0,0-3.23,1.57,1.57,0,0,1,1-1.66C3.65,7.86,6.07,6.41,8.66,4.91L.17,0H262.43c-.1,13.42,11.59,21.73,21.86,21.26A21.24,21.24,0,0,0,304.48,0h113L409,4.91c2.67,1.53,5.14,3.08,7.73,4.38a3.43,3.43,0,0,1,2.09,3.49,3.67,3.67,0,0,1-2.33,3.94C414,18,411.64,19.46,409.06,21c.42.26.73.47,1.05.66,2.62,1.52,5.26,3,7.85,4.59a2.12,2.12,0,0,1,.77,1.27c.61,2.88-.45,4.72-3.27,5.87A57.37,57.37,0,0,0,409.05,37c.53.33.95.6,1.37.84,2.52,1.47,5.06,2.9,7.54,4.41a2.14,2.14,0,0,1,.77,1.28c.62,2.88-.47,4.72-3.26,5.88a53.36,53.36,0,0,0-6.12,3.51c-.06,0-.09.12-.19.25,2.84,1.63,5.66,3.29,8.52,4.86a2.13,2.13,0,0,1,1.12,1.86c.45,2.74-.64,4.29-3.13,5.4a61.43,61.43,0,0,0-6.32,3.64c-.06,0-.09.13-.17.26,2.91,1.67,5.79,3.35,8.71,5a1.69,1.69,0,0,1,.9,1.48c.45,2.81-.52,4.57-3.22,5.7A58.59,58.59,0,0,0,409.1,85c.36.24.63.45.92.61,2.63,1.52,5.25,3,7.9,4.52a1.74,1.74,0,0,1,.87,1.5c.49,2.84-.59,4.55-3.25,5.69a64.24,64.24,0,0,0-6.48,3.7c.73.45,1.35.85,2,1.22,2.31,1.35,4.62,2.69,6.95,4a1.59,1.59,0,0,1,.79,1.3c.54,2.9-.6,4.63-3.27,5.8a68.89,68.89,0,0,0-6.5,3.7,73.85,73.85,0,0,0,6.84,3.91c2.4,1.07,3.31,2.59,2.94,5.16a2.19,2.19,0,0,1-1.14,2c-2.86,1.58-5.66,3.26-8.65,5,3,1.81,5.76,3.56,8.6,5.22a2.37,2.37,0,0,1,1.2,2.07c.34,2.56-.53,4.09-2.94,5.16a73.32,73.32,0,0,0-6.81,3.88c.49.31.86.56,1.25.79,2.55,1.48,5.12,2.93,7.65,4.47a2.09,2.09,0,0,1,.77,1.27c.63,2.84-.47,4.63-3.2,5.79a57.43,57.43,0,0,0-6.13,3.49,2,2,0,0,0-.24.29l3.45,2c1.79,1,3.61,2,5.37,3.15a2.19,2.19,0,0,1,.75,1.29c.6,2.82-.41,4.64-3.18,5.79a58.52,58.52,0,0,0-6.51,3.68l4.32,2.53c1.52.89,3,1.8,4.57,2.63.66.35.74.83.86,1.5.5,2.85-.6,4.55-3.26,5.67a59.26,59.26,0,0,0-6.14,3.48c-.07,0-.11.1-.26.25.91.53,1.79,1.06,2.68,1.57,2,1.15,3.91,2.34,5.91,3.41.84.45.94,1,1.08,1.87.43,2.68-.59,4.23-3.07,5.32a67.41,67.41,0,0,0-6.71,3.79c2.44,1.41,4.66,2.91,7.06,4,2.11,1,3,2.29,2.74,4.68a2.75,2.75,0,0,1-1.54,2.58c-2.73,1.48-5.39,3.1-8.23,4.74.74.47,1.35.88,2,1.26l6.75,4.12a6.25,6.25,0,0,1,.61.38c.79.64.45,4.93-.43,5.44l-7.79,4.48c-.33.19-.66.4-1.1.67l6.63,3.85H304.5c-.37-7.94-3.8-14.18-10.79-18.24A19.82,19.82,0,0,0,280.55,229a21,21,0,0,0-18,20.71Zm390.49-34.14a12.37,12.37,0,0,0,.15-1.42q0-88,0-176c0-1.91-.09-2-2.05-2H28.16a8.09,8.09,0,0,0-1.46.24c.07.82.15,1.41.15,2V213a3.9,3.9,0,0,1-.07,1.19c-.31,1,.2,1.13,1,1.12.48,0,1,0,1.44,0q25,0,50,0a8.87,8.87,0,0,1,1.93.41,14.58,14.58,0,0,1,2.42-.41q128.47,0,257,0,24.88,0,49.77,0A15.4,15.4,0,0,1,392.46,215.59Z"/><path class="cls-2" d="M392.46,215.59a15.4,15.4,0,0,0-2.19-.33q-24.88,0-49.77,0-128.49,0-257,0a14.58,14.58,0,0,0-2.42.41,8.87,8.87,0,0,0-1.93-.41q-25,0-50,0c-.48,0-1,0-1.44,0-.76,0-1.27-.16-1-1.12a3.9,3.9,0,0,0,.07-1.19V38.42c0-.59-.08-1.18-.15-2a8.09,8.09,0,0,1,1.46-.24H390.57c2,0,2.05.08,2.05,2q0,88,0,176A12.37,12.37,0,0,1,392.46,215.59ZM337.61,214V37.38H81.83V214ZM28.08,37.37V214H80.71V37.37ZM338.88,214h52.54V37.41H338.88Z"/><path class="cls-1" d="M337.61,214H81.83V37.38H337.61ZM202.08,106.4c-.19-.53-.3-.81-.4-1.1Q198,95,194.38,84.67c-.14-.38-.43-1-.68-1-1.45-.09-2.91,0-4.36,0v39h5.37V99.23c.8,2.29,1.63,4.61,2.44,6.93,1.83,5.19,3.64,10.38,5.49,15.56.13.38.51.92.81.94,1.22.11,2.45,0,3.69,0v-39h-5.46C201.81,91.2,201.94,98.66,202.08,106.4ZM273,149.33a17.21,17.21,0,0,1,3.31.41,2.82,2.82,0,0,1,1.38,1.44,5,5,0,0,1,.28,2c0,3.83,0,7.67.06,11.51,0,1,.15,2,.23,3H284c0-2,0-4,0-5.91-.07-3.11-.1-6.23-.28-9.33-.13-2.22-.61-4.35-3.06-5.44a4.65,4.65,0,0,0,3-4.39,57.62,57.62,0,0,0,0-8.1c-.32-3.92-2.58-5.81-6.51-5.84-1.44,0-2.88,0-4.32,0h-5.77v39H273Zm-30.87,18.4V128.78H236.2v15.68h-5.29V128.79h-5.85V167.7H231v-18h5.25v18ZM157.07,148h-.2c0,2,0,3.92,0,5.87s0,4,.23,6c.44,4.45,2.33,7.79,6.86,8.37s8.57-.87,9.7-6.2a25.3,25.3,0,0,0,.61-5c.07-6,0-12,0-18a20.85,20.85,0,0,0-.47-4.39c-.5-2.27-1.43-4.33-3.67-5.47-6.07-3.12-12.68.53-13,7.3C156.92,140.29,157.07,144.13,157.07,148Zm56.13-45.08h0c0,3.95-.2,7.91,0,11.84.28,4.45,2.29,7.79,6.83,8.36s8.57-.86,9.7-6.2a25.27,25.27,0,0,0,.6-5c.07-6,.06-12,0-18a20.85,20.85,0,0,0-.47-4.39c-.5-2.26-1.44-4.32-3.67-5.47-6.08-3.11-12.68.53-13,7.31C213,95.21,213.2,99,213.2,102.87ZM180,128.77a1.86,1.86,0,0,0-.08.36c0,10.1,0,20.21,0,30.32a9.23,9.23,0,0,0,2.12,6.34c2.28,2.53,5.26,2.7,8.38,2.31a6.75,6.75,0,0,0,6.14-5.51,17.14,17.14,0,0,0,.54-4c.05-9.58,0-19.17,0-28.76,0-.34,0-.69-.08-1h-5.91v1.48q0,13.91,0,27.8a17.87,17.87,0,0,1-.22,2.74c-.24,1.64-.85,2.21-2.25,2.26-1.61.05-2.24-.46-2.6-2.18a9.65,9.65,0,0,1-.19-2q0-14.33,0-28.65v-1.45Zm39.73,22.76c-1.74,0-3.33,0-4.92,0-.79,0-1,.28-1,1q0,3.47-.06,7a8.08,8.08,0,0,1-.35,2,2,2,0,0,1-2.13,1.54,1.85,1.85,0,0,1-2-1.54,21,21,0,0,1-.51-4q-.07-9.35,0-18.69a16.11,16.11,0,0,1,.54-3.77,2,2,0,0,1,2.27-1.54,1.84,1.84,0,0,1,1.89,1.67,36,36,0,0,1,.34,4.28c0,1.5,0,3,0,4.51h5.9c0-2,0-3.93,0-5.84a25.73,25.73,0,0,0-.23-2.62c-.56-4.2-2.69-6.6-6.82-7.14s-7.74.93-9.05,5.37a19.34,19.34,0,0,0-.84,5.05c-.09,6.42-.15,12.86,0,19.29a16.72,16.72,0,0,0,1.48,6.2c1.54,3.4,4.68,4.24,8.13,4a6.93,6.93,0,0,0,6.55-5.08C220.13,159.38,219.54,155.51,219.69,151.53Zm-72.47-22.76c-1.16,9.9-2.31,19.76-3.48,29.81l-4.14-29.8h-5.77l6,39H145c2.16,0,2.23,0,2.54-2.07.81-5.31,1.55-10.63,2.31-15.95s1.56-10.79,2.32-16.19c.23-1.59.42-3.18.63-4.82Zm101.35,0v39h13.24v-5.17h-7.27v-12.3h6.62v-5h-6.59V133.88h7v-5.13ZM99.35,63.63c.23-1.23.44-2.28.62-3.34a5,5,0,0,1,4.51-4.54c1.09-.16,2.17-.39,3.26-.6-6.63-1.08-7.32-1.4-8.38-8.49-.22.91-.39,1.83-.56,2.75-.59,3.24-1.67,4.37-4.86,5.05-1,.2-2,.36-2.92.54,2.16.67,4.55.47,6.24,2.21S98.7,61.34,99.35,63.63ZM95.14,210.4c.11-.75.2-1.5.32-2.24.63-3.77,1.79-5,5.28-5.62l2.82-.53.22-.32c-6,.36-8.64-2.64-8.6-8.34-1.35,7.53-1.84,7.36-8.74,8.75C92.27,201.93,95.06,204.8,95.14,210.4ZM321.94,46.77l.22-.11-.3,2c-.61,4.1-1.88,5.38-5.88,6-.71.11-1.41.25-2.11.38a35.54,35.54,0,0,0,3.63.82,4.59,4.59,0,0,1,3.91,3.83c.26,1.27.52,2.54.84,4.13.15-1,.24-1.67.35-2.34.64-4.06,1.91-5.34,5.82-5.89.72-.1,1.44-.25,2.16-.37-2.16-.68-4.86-.3-6.22-2.24C323.13,51.18,322.72,48.85,321.94,46.77Zm8.89,155.17-2.21-.33c-3.94-.61-5.1-1.67-5.84-5.34-.18-.92-.34-1.84-.54-2.89-.31,1.51-.53,2.89-.87,4.23a4.47,4.47,0,0,1-3.64,3.54l-4,.83c5.71,0,8.43,2.88,8.34,8.61C323.44,202.86,324.14,203.1,330.83,201.94Z"/><path class="cls-3" d="M28.08,37.37H80.71V214H28.08ZM57.33,93.23a14.36,14.36,0,0,1-.27-1.69c0-1.32,0-2.63,0-4,0-.82-.15-1.54-1.19-1.57a4.48,4.48,0,0,0-4.25,4.86c.4,2.1,1.53,3.8,4.18,3.9,2.47.09,4.09-.52,5.34-2.69a5,5,0,0,0-.81-5.36c-.33-.36-1-.41-1.51-.61,0,.55.1,1.11.18,1.66,0,.1.16.18.24.26C60.82,89.81,59.92,92.54,57.33,93.23Zm.21,68.2,0,.49a5.63,5.63,0,0,1-.93.37c-1.76.39-3.52.84-5.3,1.11a5.11,5.11,0,0,1-1.92-.43c-.34-.1-.73-.47-1-.38a1.19,1.19,0,0,0-.64.89,16.89,16.89,0,0,0,.21,2.84c0,.33.4.61.62.9.25-.27.69-.52.72-.82.13-1.14.88-1.35,1.81-1.55,3-.66,6.08-1.39,9.12-2.09a1.29,1.29,0,0,0,1.12-1.56,1.27,1.27,0,0,0-1.45-1.11,4.81,4.81,0,0,1-.92-.17c-2.07-.49-4.13-1-6.2-1.47-1.49-.33-3.13-.37-3.65-2.28a1,1,0,0,0-.78-.56c-.23,0-.61.4-.64.66a29.48,29.48,0,0,0-.18,3.51c0,.35.35.95.6,1a1.48,1.48,0,0,0,1.2-.49c.57-.81,1.22-.69,2-.48,1.14.31,2.3.52,3.44.82C55.7,160.85,56.62,161.16,57.54,161.43ZM48.29,110.1l.44.19c.29-.32.8-.63.83-1a1,1,0,0,1,1.06-1c1-.09,2-.16,3-.18,1.79,0,3.59-.06,5.37,0,.39,0,.76.49,1.11.79s.59.58.88.88c.2-.35.55-.68.58-1,0-.55-.24-1.15-.16-1.69a1.58,1.58,0,0,0-1.34-2,5.2,5.2,0,0,1-.3,1.11c-.12.24-.41.56-.63.57-.91,0-1.82,0-2.74-.08a3.27,3.27,0,0,1-3-3c-.07-1.26.36-1.76,1.61-1.85.79,0,1.58-.09,2.37-.18,1.59-.18,2,.06,2.72,1.51.12.23.63.32,1,.36.12,0,.4-.29.4-.45,0-1.08,0-2.16-.14-3.23a3.36,3.36,0,0,0-.43-1c-.32.21-.84.36-.95.66a1.44,1.44,0,0,1-1.68,1,35,35,0,0,0-3.55,0,2.57,2.57,0,0,0-1.5.53c-1.4,1.31-2,2.71-.56,4.57.63.79.41,1.23-.61,1.29a24.93,24.93,0,0,0-2.74.08,1.61,1.61,0,0,0-1.1.94A8.61,8.61,0,0,0,48.29,110.1Zm9.76,26.12c2.87.55,4.52-2.07,3.07-4.48a2.73,2.73,0,0,1-.38-.88,1.75,1.75,0,0,1,.14-.73,10.09,10.09,0,0,0,.66-2.27c0-.35-.59-.91-1-1-.24-.06-.92.55-1,.91-.12.88-.56,1-1.3,1-1.75,0-3.49-.07-5.23,0a1.58,1.58,0,0,0-1.14.86,3.49,3.49,0,0,0,.14,1.74,3.38,3.38,0,0,0,.57.93,7.49,7.49,0,0,0,.84-.85c.22-.3.26-.84.53-1a4,4,0,0,1,5.75,2.3A1.54,1.54,0,0,1,58.15,135c-1.43,0-2.85-.11-4.27-.17a1.78,1.78,0,0,0-1.94,2.54c.13.42.57.75.86,1.12.29-.39.8-.78.81-1.18,0-.84.47-1.05,1.1-1.07C55.82,136.18,56.94,136.22,58.05,136.22Zm-1.66,6.23c-2.06-.54-3.06,1.1-4.06,2.38-.85,1.09-.43,2.48-.22,3.81.5,3.14,5.79,4.25,7.62,2.19a13.89,13.89,0,0,0,1.39-1.93,4.35,4.35,0,0,0-.19-4.66A4.62,4.62,0,0,0,56.39,142.45Zm.7,35.71c0-1.9-.14-3.67-.05-5.42.07-1.41-.35-2-1.74-1.81-1.84.2-3.85,2.54-3.71,4.33a4.61,4.61,0,0,0,5.34,4.46,5,5,0,0,0,4.34-3.13,4.93,4.93,0,0,0-1-5c-.29-.38-.88-.52-1.33-.76l-.37.38a7,7,0,0,0,.74,1.61C60.88,174.68,60,177.45,57.09,178.16Zm2.06-64.23c-1,.86-1.39,1.48-.1,2.54a2.62,2.62,0,0,1-.37,4.19,4.92,4.92,0,0,1-4.59-.47c-.89-.72-.71-1.67-.59-2.53,0-.31.77-.52,1.19-.78.21-.12.48-.19.61-.37.3-.4.79-.91.71-1.28A2,2,0,0,0,55,114,2.49,2.49,0,0,0,52,116c-.33,1.88-.94,3.71,1.08,5.39A5.72,5.72,0,0,0,57,122.75a4.62,4.62,0,0,0,4.37-3.47C61.86,117.38,61.06,115.39,59.15,113.93ZM53,77.57c-1.37.6-.9,1.85-.88,2.9,0,.41.42.81.65,1.21.25-.41.73-.85.7-1.24-.09-1.08.47-1.34,1.33-1.35,1.24,0,2.48,0,3.71,0a1.47,1.47,0,0,1,1.73,1.5,5.79,5.79,0,0,0,.61,1.38c1-1.47.54-6.33-.54-6.9a8,8,0,0,0-.5,1.61c-.08.7-.34,1-1,1s-1.11,0-1.67.05c-1.71,0-3.59-1.87-3.47-3.43.39-.07.89,0,1.13-.24a2,2,0,0,0,.63-1.29,1.42,1.42,0,0,0-.79-1.07,2.27,2.27,0,0,0-2.66,2.73C52.17,75.44,52.57,76.47,53,77.57Z"/><path class="cls-3" d="M338.88,214V37.41h52.54V214Zm23-33.76.09.13s0-.06,0-.08l-.09-.05c.23-.44.44-.89.68-1.33s.43-.94.65-1c1.35,0,2.75-.35,4,.58a3.33,3.33,0,0,1,1.42,2.84c-.27,0-.55,0-.83.07-.75.09-.92.55-.93,1.26a1.17,1.17,0,0,0,1,1.3,2.46,2.46,0,0,0,2.64-2.7c-.22-.88-.62-1.7-.9-2.56-.1-.28-.21-.8-.12-.85,1.2-.62.82-1.73.76-2.66,0-.48-.45-.93-.7-1.4-.23.45-.65.91-.64,1.36,0,.91-.36,1.22-1.2,1.21-1.27,0-2.55,0-3.82,0s-1.71-.39-1.76-1.57c0-.38-.34-.76-.52-1.14l-.38.06a4,4,0,0,0-.25.94c0,.85,0,1.71,0,2.57s.17,1.85.32,2.77C361.32,180.17,361.71,180.21,361.92,180.26Zm2.9-86.07,0-.37c.24-.18.46-.47.72-.53,2-.41,4.08-.82,6.14-1.12.41-.06.89.3,1.32.48s.74.51,1,.42a1.19,1.19,0,0,0,.63-.91,12.59,12.59,0,0,0-.17-2.6,3.78,3.78,0,0,0-.61-1.13c-.28.34-.54.69-.83,1s-.7,1-1.17,1.16a24.81,24.81,0,0,1-2.89.68c-2.35.55-4.71,1.06-7,1.73a1.69,1.69,0,0,0-.84,1.42c.09.45.8.82,1.29,1.13.22.14.6,0,.88.08,2.15.52,4.28,1.13,6.44,1.56,1.55.32,3.07.5,3.62,2.35.07.25.53.48.83.53.14,0,.48-.42.51-.67a27.27,27.27,0,0,0,.19-3.5.95.95,0,0,0-1.81-.53,1.27,1.27,0,0,1-1.63.53c-1.35-.36-2.73-.61-4.09-1C366.44,94.74,365.64,94.45,364.82,94.19ZM362,151.9c-.39.2-1.12.37-1.13.58a27.23,27.23,0,0,0,.13,3.61c0,.23.32.64.48.63s.78-.21.84-.42c.31-1.2,1.15-1.26,2.14-1.21s1.91-.06,2.86,0a3.08,3.08,0,0,0,2.45-5c-.69-1-.65-1.22.44-1.39a10.49,10.49,0,0,1,1.86,0c1.9,0,2.28-.34,2.05-2.2,0-.35-.36-.67-.56-1-.28.3-.74.55-.81.89-.19,1.08-1.09,1.07-1.77,1.11a52.6,52.6,0,0,1-6.15.05c-1-.06-2.56.61-2.73-1.35,0-.17-.5-.44-.74-.42a.85.85,0,0,0-.57.61,25.29,25.29,0,0,0,.32,3.37c.07.38.54.68.95,1.16.29-.81.34-1.53.7-1.77s1.08-.08,1.64-.11a3.37,3.37,0,0,0,.34-.1,3.56,3.56,0,0,1,3.92,1.85c.78,1.48.12,3-1.32,3.06-.78,0-1.56,0-2.34,0C362.78,154,362.78,154,362,151.9Zm5.18-31v-.12h1.2c1.74,0,2.54-1,2-2.71-.13-.38-.56-.66-.84-1-.28.36-.78.73-.78,1.09,0,1.11-.65,1.24-1.49,1.2-1.27,0-2.55-.16-3.82-.16a2.65,2.65,0,0,0-2.68,2.94,19.47,19.47,0,0,0,.71,2.25,2.12,2.12,0,0,1,0,1.06,9.24,9.24,0,0,0-.64,2.15c0,.42.63.85,1,1.28.35-.37.92-.71,1-1.14.15-.77.5-1,1.21-1,1.74,0,3.48.08,5.22,0a1.59,1.59,0,0,0,1.22-.76,4.38,4.38,0,0,0-.15-2c-.06-.28-.41-.51-.63-.76a7.09,7.09,0,0,0-.76.79c-.21.31-.23.85-.5,1a3.94,3.94,0,0,1-5.66-2.13,2.21,2.21,0,0,1,.18-1.82,2.42,2.42,0,0,1,1.68-.53A19,19,0,0,1,367.18,120.88ZM370.54,109c0-3.42-1.87-5-5.74-5.21-2-.09-4.19,3.23-4.21,4.9,0,2.57,1.44,4.77,6,4.68C368.11,113.29,370.65,110.73,370.54,109ZM363.3,84.86l.44-.33a5.93,5.93,0,0,0-.67-1.72,3.39,3.39,0,0,1,.64-4.85c1-.65,1.51-.43,1.56.72.06,1.46.05,2.93,0,4.39,0,.84.1,1.57,1.09,1.68,2.11.23,4.72-2.58,4.34-4.69-.6-3.29-2.27-4.25-5.49-4.08a4.61,4.61,0,0,0-4.19,3.1c-.73,1.87-.06,3.59,1.13,5.09A3.69,3.69,0,0,0,363.3,84.86Zm1.92,77.41c0,1.86.12,3.59.11,5.32,0,.85-.23,1.77,1,1.9,2.7.27,4.7-2.68,4.34-4.7-.45-2.49-1.65-3.89-4.5-4a5,5,0,0,0-5.05,2.9,5.25,5.25,0,0,0,1,5.23,4.28,4.28,0,0,0,1.3.65l.35-.33a5.51,5.51,0,0,0-.62-1.53C361.47,165.73,362.28,163.12,365.22,162.27Zm-2-20.66c.92-.76,1.34-1.24.14-2.42s-1.53-3,.33-4.17c.56-.37,1.46-.17,2.16-.39a2.35,2.35,0,0,1,2.71,1.21,3.65,3.65,0,0,1,.27,2.27c0,.26-.8.41-1.18.68s-1.12.69-1.31,1.19a1.5,1.5,0,0,0,.56,1.38,2.22,2.22,0,0,0,1.78.09c2.38-1.18,2.49-5.07,1.29-6.66a5.4,5.4,0,0,0-5-1.95,4.84,4.84,0,0,0-4,3.67A4.75,4.75,0,0,0,363.2,141.61Z"/><path class="cls-4" d="M202.08,106.4c-.14-7.74-.27-15.2-.4-22.71h5.46v39c-1.24,0-2.47.06-3.69,0-.3,0-.68-.56-.81-.94-1.85-5.18-3.66-10.37-5.49-15.56-.81-2.32-1.64-4.64-2.44-6.93v23.41h-5.37v-39c1.45,0,2.91,0,4.36,0,.25,0,.54.61.68,1Q198,95,201.68,105.3C201.78,105.59,201.89,105.87,202.08,106.4Z"/><path class="cls-5" d="M273,149.33v18.39h-5.94v-39h5.77c1.44,0,2.88,0,4.32,0,3.93,0,6.19,1.92,6.51,5.84a57.62,57.62,0,0,1,0,8.1,4.65,4.65,0,0,1-3,4.39c2.45,1.09,2.93,3.22,3.06,5.44.18,3.1.21,6.22.28,9.33,0,1.94,0,3.89,0,5.91h-5.72c-.08-1-.22-2-.23-3,0-3.84,0-7.68-.06-11.51a5,5,0,0,0-.28-2,2.82,2.82,0,0,0-1.38-1.44A17.21,17.21,0,0,0,273,149.33Zm.07-15.93v11.35c.76,0,1.43,0,2.1,0,1.66,0,2.35-.53,2.57-2.2a38.11,38.11,0,0,0,.23-4.9c0-3.95-.71-4.6-4.65-4.32Z"/><path class="cls-6" d="M242.13,167.73h-5.88v-18H231v18h-5.94V128.79h5.85v15.67h5.29V128.78h5.93Z"/><path class="cls-7" d="M157.07,148c0-3.82-.15-7.66,0-11.48.34-6.77,6.95-10.42,13-7.3,2.24,1.14,3.17,3.2,3.67,5.47a20.85,20.85,0,0,1,.47,4.39c0,6,.07,12,0,18a25.3,25.3,0,0,1-.61,5c-1.13,5.33-5,6.78-9.7,6.2s-6.42-3.92-6.86-8.37c-.2-2-.19-4-.23-6s0-3.91,0-5.87Zm11.05.19h0c0-3.68,0-7.35,0-11a8,8,0,0,0-.26-1.89,2,2,0,0,0-2-1.75,2.13,2.13,0,0,0-2.4,1.53,8.12,8.12,0,0,0-.41,2.22q0,11.07,0,22.16a8.13,8.13,0,0,0,.27,1.89,2,2,0,0,0,2.23,1.74,2.1,2.1,0,0,0,2.25-1.73,10.28,10.28,0,0,0,.28-2.13C168.13,155.49,168.12,151.81,168.12,148.14Z"/><path class="cls-7" d="M213.2,102.87c0-3.83-.16-7.66,0-11.48.34-6.78,6.94-10.42,13-7.31,2.23,1.15,3.17,3.21,3.67,5.47a20.85,20.85,0,0,1,.47,4.39c0,6,.06,12,0,18a25.27,25.27,0,0,1-.6,5c-1.13,5.34-5,6.79-9.7,6.2s-6.55-3.91-6.83-8.36c-.25-3.93,0-7.89,0-11.84Zm11.05.19h0c0-3.68,0-7.35,0-11a7.49,7.49,0,0,0-.27-1.88,2,2,0,0,0-2-1.76,2.12,2.12,0,0,0-2.4,1.54,8,8,0,0,0-.41,2.21q0,11.08,0,22.17a8,8,0,0,0,.27,1.88,2,2,0,0,0,2.23,1.74,2.11,2.11,0,0,0,2.25-1.72,11,11,0,0,0,.28-2.13C224.26,110.41,224.25,106.73,224.25,103.06Z"/><path class="cls-8" d="M180,128.77h5.9v1.45q0,14.33,0,28.65a9.65,9.65,0,0,0,.19,2c.36,1.72,1,2.23,2.6,2.18,1.4-.05,2-.62,2.25-2.26a17.87,17.87,0,0,0,.22-2.74q0-13.91,0-27.8v-1.48h5.91c0,.34.08.69.08,1,0,9.59,0,19.18,0,28.76a17.14,17.14,0,0,1-.54,4,6.75,6.75,0,0,1-6.14,5.51c-3.12.39-6.1.22-8.38-2.31a9.23,9.23,0,0,1-2.12-6.34c-.09-10.11,0-20.22,0-30.32A1.86,1.86,0,0,1,180,128.77Z"/><path class="cls-4" d="M219.69,151.53c-.15,4,.44,7.85-.8,11.62a6.93,6.93,0,0,1-6.55,5.08c-3.45.27-6.59-.57-8.13-4a16.72,16.72,0,0,1-1.48-6.2c-.18-6.43-.12-12.87,0-19.29a19.34,19.34,0,0,1,.84-5.05c1.31-4.44,4.82-5.92,9.05-5.37s6.26,2.94,6.82,7.14a25.73,25.73,0,0,1,.23,2.62c0,1.91,0,3.83,0,5.84h-5.9c0-1.5,0-3,0-4.51a36,36,0,0,0-.34-4.28,1.84,1.84,0,0,0-1.89-1.67,2,2,0,0,0-2.27,1.54,16.11,16.11,0,0,0-.54,3.77q-.07,9.34,0,18.69a21,21,0,0,0,.51,4,1.85,1.85,0,0,0,2,1.54,2,2,0,0,0,2.13-1.54,8.08,8.08,0,0,0,.35-2q.09-3.48.06-7c0-.77.24-1.07,1-1C216.36,151.57,218,151.53,219.69,151.53Z"/><path class="cls-4" d="M147.22,128.77h5.6c-.21,1.64-.4,3.23-.63,4.82q-1.14,8.1-2.32,16.19c-.76,5.32-1.5,10.64-2.31,15.95-.31,2.08-.38,2.07-2.54,2.07h-5.14l-6-39h5.77l4.14,29.8C144.91,148.53,146.06,138.67,147.22,128.77Z"/><path class="cls-9" d="M248.57,128.75h13v5.13h-7v11.34h6.59v5h-6.62v12.3h7.27v5.17H248.57Z"/><path class="cls-10" d="M99.35,63.63c-.65-2.29-.41-4.7-2.09-6.42S93.18,55.67,91,55c1-.18,2-.34,2.92-.54,3.19-.68,4.27-1.81,4.86-5.05.17-.92.34-1.84.56-2.75,1.06,7.09,1.75,7.41,8.38,8.49-1.09.21-2.17.44-3.26.6A5,5,0,0,0,100,60.29C99.79,61.35,99.58,62.4,99.35,63.63Z"/><path class="cls-10" d="M95.14,210.4c-.08-5.6-2.87-8.47-8.7-8.3,6.9-1.39,7.39-1.22,8.74-8.75,0,5.7,2.6,8.7,8.6,8.34l-.22.32-2.82.53c-3.49.63-4.65,1.85-5.28,5.62C95.34,208.9,95.25,209.65,95.14,210.4Z"/><path class="cls-11" d="M321.94,46.77c.78,2.08,1.19,4.41,2.42,6.17,1.36,1.94,4.06,1.56,6.22,2.24-.72.12-1.44.27-2.16.37-3.91.55-5.18,1.83-5.82,5.89-.11.67-.2,1.33-.35,2.34-.32-1.59-.58-2.86-.84-4.13a4.59,4.59,0,0,0-3.91-3.83,35.54,35.54,0,0,1-3.63-.82c.7-.13,1.4-.27,2.11-.38,4-.58,5.27-1.86,5.88-6l.3-2Z"/><path class="cls-12" d="M330.83,201.94c-6.69,1.16-7.39.92-8.72,8.65.09-5.73-2.63-8.66-8.34-8.61l4-.83a4.47,4.47,0,0,0,3.64-3.54c.34-1.34.56-2.72.87-4.23.2,1.05.36,2,.54,2.89.74,3.67,1.9,4.73,5.84,5.34Z"/><path class="cls-13" d="M57.33,93.23c2.59-.69,3.49-3.42,1.91-5.19-.08-.08-.22-.16-.24-.26-.08-.55-.13-1.11-.18-1.66.51.2,1.18.25,1.51.61a5,5,0,0,1,.81,5.36c-1.25,2.17-2.87,2.78-5.34,2.69-2.65-.1-3.78-1.8-4.18-3.9A4.48,4.48,0,0,1,55.87,86c1,0,1.19.75,1.19,1.57,0,1.32,0,2.63,0,4A14.36,14.36,0,0,0,57.33,93.23Z"/><path class="cls-14" d="M57.54,161.43c-.92-.27-1.84-.58-2.77-.82-1.14-.3-2.3-.51-3.44-.82-.78-.21-1.43-.33-2,.48a1.48,1.48,0,0,1-1.2.49c-.25,0-.59-.63-.6-1a29.48,29.48,0,0,1,.18-3.51c0-.26.41-.66.64-.66a1,1,0,0,1,.78.56c.52,1.91,2.16,2,3.65,2.28,2.07.46,4.13,1,6.2,1.47a4.81,4.81,0,0,0,.92.17,1.27,1.27,0,0,1,1.45,1.11,1.29,1.29,0,0,1-1.12,1.56c-3,.7-6.08,1.43-9.12,2.09-.93.2-1.68.41-1.81,1.55,0,.3-.47.55-.72.82-.22-.29-.57-.57-.62-.9a16.89,16.89,0,0,1-.21-2.84,1.19,1.19,0,0,1,.64-.89c.25-.09.64.28,1,.38a5.11,5.11,0,0,0,1.92.43c1.78-.27,3.54-.72,5.3-1.11a5.63,5.63,0,0,0,.93-.37Z"/><path class="cls-15" d="M48.29,110.1a8.61,8.61,0,0,1-.07-2.2,1.61,1.61,0,0,1,1.1-.94,24.93,24.93,0,0,1,2.74-.08c1-.06,1.24-.5.61-1.29-1.47-1.86-.84-3.26.56-4.57a2.57,2.57,0,0,1,1.5-.53,35,35,0,0,1,3.55,0,1.44,1.44,0,0,0,1.68-1c.11-.3.63-.45.95-.66a3.36,3.36,0,0,1,.43,1c.1,1.07.13,2.15.14,3.23,0,.16-.28.47-.4.45-.35,0-.86-.13-1-.36-.76-1.45-1.13-1.69-2.72-1.51-.79.09-1.58.13-2.37.18-1.25.09-1.68.59-1.61,1.85a3.27,3.27,0,0,0,3,3c.92,0,1.83.11,2.74.08.22,0,.51-.33.63-.57a5.2,5.2,0,0,0,.3-1.11,1.58,1.58,0,0,1,1.34,2c-.08.54.21,1.14.16,1.69,0,.36-.38.69-.58,1-.29-.3-.57-.61-.88-.88s-.72-.78-1.11-.79c-1.78-.08-3.58,0-5.37,0-1,0-2,.09-3,.18a1,1,0,0,0-1.06,1c0,.35-.54.66-.83,1Z"/><path class="cls-16" d="M58.05,136.22c-1.11,0-2.23,0-3.34,0-.63,0-1.09.23-1.1,1.07,0,.4-.52.79-.81,1.18-.29-.37-.73-.7-.86-1.12a1.78,1.78,0,0,1,1.94-2.54c1.42.06,2.84.13,4.27.17a1.54,1.54,0,0,0,1.57-2.24,4,4,0,0,0-5.75-2.3c-.27.13-.31.67-.53,1a7.49,7.49,0,0,1-.84.85,3.38,3.38,0,0,1-.57-.93,3.49,3.49,0,0,1-.14-1.74,1.58,1.58,0,0,1,1.14-.86c1.74-.08,3.48-.05,5.23,0,.74,0,1.18-.11,1.3-1,0-.36.73-1,1-.91.42.12,1,.68,1,1a10.09,10.09,0,0,1-.66,2.27,1.75,1.75,0,0,0-.14.73,2.73,2.73,0,0,0,.38.88C62.57,134.15,60.92,136.77,58.05,136.22Z"/><path class="cls-17" d="M56.39,142.45a4.62,4.62,0,0,1,4.54,1.79,4.35,4.35,0,0,1,.19,4.66,13.89,13.89,0,0,1-1.39,1.93c-1.83,2.06-7.12.95-7.62-2.19-.21-1.33-.63-2.72.22-3.81C53.33,143.55,54.33,141.91,56.39,142.45Zm-2.7,4.65c0,2,1,3.16,2.85,3.17a3.64,3.64,0,0,0,3.53-3.6c0-1-1.79-2.76-3-2.81A3,3,0,0,0,53.69,147.1Z"/><path class="cls-16" d="M57.09,178.16c2.86-.71,3.79-3.48,2.21-5.35a7,7,0,0,1-.74-1.61l.37-.38c.45.24,1,.38,1.33.76a4.93,4.93,0,0,1,1,5,5,5,0,0,1-4.34,3.13,4.61,4.61,0,0,1-5.34-4.46c-.14-1.79,1.87-4.13,3.71-4.33,1.39-.15,1.81.4,1.74,1.81C57,174.49,57.06,176.26,57.09,178.16Zm-1.29-4.88c-.06-.1-.35-.86-.53-.84a2.19,2.19,0,0,0-1.42.74,3.06,3.06,0,0,0,.17,4.11,7.84,7.84,0,0,0,1.07.8c.24-.38.64-.74.67-1.13C55.86,175.87,55.8,174.77,55.8,173.28Z"/><path class="cls-18" d="M59.15,113.93c1.91,1.46,2.71,3.45,2.19,5.35A4.62,4.62,0,0,1,57,122.75a5.72,5.72,0,0,1-3.85-1.34c-2-1.68-1.41-3.51-1.08-5.39A2.49,2.49,0,0,1,55,114,2,2,0,0,1,56,115.23c.08.37-.41.88-.71,1.28-.13.18-.4.25-.61.37-.42.26-1.14.47-1.19.78-.12.86-.3,1.81.59,2.53a4.92,4.92,0,0,0,4.59.47,2.62,2.62,0,0,0,.37-4.19C57.76,115.41,58.11,114.79,59.15,113.93Z"/><path class="cls-14" d="M53,77.57c-.38-1.1-.78-2.13-1.07-3.19a2.27,2.27,0,0,1,2.66-2.73,1.42,1.42,0,0,1,.79,1.07A2,2,0,0,1,54.7,74c-.24.22-.74.17-1.13.24-.12,1.56,1.76,3.44,3.47,3.43.56,0,1.11-.07,1.67-.05s1-.28,1-1a8,8,0,0,1,.5-1.61c1.08.57,1.49,5.43.54,6.9a5.79,5.79,0,0,1-.61-1.38,1.47,1.47,0,0,0-1.73-1.5c-1.23,0-2.47,0-3.71,0-.86,0-1.42.27-1.33,1.35,0,.39-.45.83-.7,1.24-.23-.4-.63-.8-.65-1.21C52.05,79.42,51.58,78.17,53,77.57Z"/><path class="cls-14" d="M364.82,94.19c.82.26,1.62.55,2.45.76,1.36.35,2.74.6,4.09,1a1.27,1.27,0,0,0,1.63-.53.95.95,0,0,1,1.81.53,27.27,27.27,0,0,1-.19,3.5c0,.25-.37.69-.51.67-.3,0-.76-.28-.83-.53-.55-1.85-2.07-2-3.62-2.35-2.16-.43-4.29-1-6.44-1.56-.28-.07-.66.06-.88-.08-.49-.31-1.2-.68-1.29-1.13a1.69,1.69,0,0,1,.84-1.42c2.31-.67,4.67-1.18,7-1.73a24.81,24.81,0,0,0,2.89-.68c.47-.18.79-.75,1.17-1.16s.55-.67.83-1a3.78,3.78,0,0,1,.61,1.13,12.59,12.59,0,0,1,.17,2.6,1.19,1.19,0,0,1-.63.91c-.23.09-.63-.28-1-.42s-.91-.54-1.32-.48c-2.06.3-4.1.71-6.14,1.12-.26.06-.48.35-.72.53Z"/><path class="cls-19" d="M362,151.9c.78,2.1.78,2.09,3,2,.78,0,1.56,0,2.34,0,1.44-.05,2.1-1.58,1.32-3.06a3.56,3.56,0,0,0-3.92-1.85,3.37,3.37,0,0,1-.34.1c-.56,0-1.25-.16-1.64.11s-.41,1-.7,1.77c-.41-.48-.88-.78-.95-1.16a25.29,25.29,0,0,1-.32-3.37.85.85,0,0,1,.57-.61c.24,0,.73.25.74.42.17,2,1.74,1.29,2.73,1.35a52.6,52.6,0,0,0,6.15-.05c.68,0,1.58,0,1.77-1.11.07-.34.53-.59.81-.89.2.34.52.66.56,1,.23,1.86-.15,2.23-2.05,2.2a10.49,10.49,0,0,0-1.86,0c-1.09.17-1.13.42-.44,1.39a3.08,3.08,0,0,1-2.45,5c-.95-.08-1.91,0-2.86,0s-1.83,0-2.14,1.21c-.06.21-.54.41-.84.42s-.46-.4-.48-.63a27.23,27.23,0,0,1-.13-3.61C360.88,152.27,361.61,152.1,362,151.9Z"/><path class="cls-17" d="M367.18,120.88a19,19,0,0,0-2.59-.29,2.42,2.42,0,0,0-1.68.53,2.21,2.21,0,0,0-.18,1.82,3.94,3.94,0,0,0,5.66,2.13c.27-.15.29-.69.5-1a7.09,7.09,0,0,1,.76-.79c.22.25.57.48.63.76a4.38,4.38,0,0,1,.15,2,1.59,1.59,0,0,1-1.22.76c-1.74.07-3.48,0-5.22,0-.71,0-1.06.18-1.21,1-.09.43-.66.77-1,1.14-.35-.43-1-.86-1-1.28a9.24,9.24,0,0,1,.64-2.15,2.12,2.12,0,0,0,0-1.06,19.47,19.47,0,0,1-.71-2.25,2.65,2.65,0,0,1,2.68-2.94c1.27,0,2.55.11,3.82.16.84,0,1.48-.09,1.49-1.2,0-.36.5-.73.78-1.09.28.33.71.61.84,1,.58,1.67-.22,2.73-2,2.71h-1.2Z"/><path class="cls-16" d="M370.54,109c.11,1.78-2.43,4.34-4,4.37-4.51.09-6-2.11-6-4.68,0-1.67,2.23-5,4.21-4.9C368.67,103.9,370.56,105.53,370.54,109Zm-1.9-.33c0-2.06-.88-3.16-2.66-3.2a3.39,3.39,0,0,0-3.64,3.36,3.45,3.45,0,0,0,2.88,2.92C367.55,111.75,368.61,110.79,368.64,108.62Z"/><path class="cls-20" d="M363.3,84.86a3.69,3.69,0,0,1-1.14-.69C361,82.67,360.3,81,361,79.08a4.61,4.61,0,0,1,4.19-3.1c3.22-.17,4.89.79,5.49,4.08.38,2.11-2.23,4.92-4.34,4.69-1-.11-1.11-.84-1.09-1.68,0-1.46.05-2.93,0-4.39,0-1.15-.59-1.37-1.56-.72a3.39,3.39,0,0,0-.64,4.85,5.93,5.93,0,0,1,.67,1.72Zm6.07-4.5a18.36,18.36,0,0,0-1.48-2.57c-.35-.46-1.12-.53-1.19.35-.11,1.49-.1,3-.09,4.48a.74.74,0,0,0,.51.52c.4,0,1,0,1.17-.28A18.47,18.47,0,0,0,369.37,80.36Z"/><path class="cls-16" d="M365.22,162.27c-2.94.85-3.75,3.46-2.09,5.46a5.51,5.51,0,0,1,.62,1.53l-.35.33a4.28,4.28,0,0,1-1.3-.65,5.25,5.25,0,0,1-1-5.23,5,5,0,0,1,5.05-2.9c2.85.09,4.05,1.49,4.5,4,.36,2-1.64,5-4.34,4.7-1.23-.13-1-1.05-1-1.9C365.34,165.86,365.26,164.13,365.22,162.27Zm1.75,0c-.9,1.73-.19,3.5-.34,5.2,0,.15.48.48.75.5,1.25.09,1.27-1,1.56-1.78A3,3,0,0,0,367,162.31Z"/><path class="cls-21" d="M363.2,141.61a4.75,4.75,0,0,1-2.22-5.1,4.84,4.84,0,0,1,4-3.67,5.4,5.4,0,0,1,5,1.95c1.2,1.59,1.09,5.48-1.29,6.66a2.22,2.22,0,0,1-1.78-.09,1.5,1.5,0,0,1-.56-1.38c.19-.5.82-.84,1.31-1.19s1.15-.42,1.18-.68a3.65,3.65,0,0,0-.27-2.27,2.35,2.35,0,0,0-2.71-1.21c-.7.22-1.6,0-2.16.39-1.86,1.21-1.67,2.85-.33,4.17S364.12,140.85,363.2,141.61Z"/><path class="cls-21" d="M361.92,180.27c-.21-.06-.6-.1-.61-.19-.15-.92-.26-1.84-.32-2.77s0-1.72,0-2.57a4,4,0,0,1,.25-.94l.38-.06c.18.38.51.76.52,1.14.05,1.18.61,1.62,1.76,1.57s2.55,0,3.82,0c.84,0,1.21-.3,1.2-1.21,0-.45.41-.91.64-1.36.25.47.68.92.7,1.4.06.93.44,2-.76,2.66-.09.05,0,.57.12.85.28.86.68,1.68.9,2.56a2.46,2.46,0,0,1-2.64,2.7,1.17,1.17,0,0,1-1-1.3c0-.71.18-1.17.93-1.26.28,0,.56-.05.83-.07a3.33,3.33,0,0,0-1.42-2.84c-1.25-.93-2.65-.6-4-.58-.22,0-.45.61-.65,1s-.45.89-.68,1.33Z"/><path class="cls-21" d="M361.92,180.26l.09.05s0,.05,0,.08l-.09-.12Z"/><path class="cls-22" d="M273.07,133.4l.25-.08c3.94-.28,4.66.37,4.65,4.32a38.11,38.11,0,0,1-.23,4.9c-.22,1.67-.91,2.16-2.57,2.2-.67,0-1.34,0-2.1,0Z"/><path class="cls-3" d="M168.12,148.14c0,3.67,0,7.35,0,11a10.28,10.28,0,0,1-.28,2.13,2.1,2.1,0,0,1-2.25,1.73,2,2,0,0,1-2.23-1.74,8.13,8.13,0,0,1-.27-1.89q0-11.08,0-22.16a8.12,8.12,0,0,1,.41-2.22,2.13,2.13,0,0,1,2.4-1.53,2,2,0,0,1,2,1.75,8,8,0,0,1,.26,1.89c0,3.67,0,7.34,0,11Z"/><path class="cls-3" d="M224.25,103.06c0,3.67,0,7.35,0,11a11,11,0,0,1-.28,2.13,2.11,2.11,0,0,1-2.25,1.72,2,2,0,0,1-2.23-1.74,8,8,0,0,1-.27-1.88q0-11.09,0-22.17a8,8,0,0,1,.41-2.21,2.12,2.12,0,0,1,2.4-1.54,2,2,0,0,1,2,1.76,7.49,7.49,0,0,1,.27,1.88c0,3.68,0,7.35,0,11Z"/><path class="cls-23" d="M53.69,147.1a3,3,0,0,1,3.41-3.24c1.18,0,3,1.79,3,2.81a3.64,3.64,0,0,1-3.53,3.6C54.7,150.26,53.66,149.1,53.69,147.1Z"/><path class="cls-22" d="M55.8,173.28c0,1.49.06,2.59,0,3.68,0,.39-.43.75-.67,1.13a7.84,7.84,0,0,1-1.07-.8,3.06,3.06,0,0,1-.17-4.11,2.19,2.19,0,0,1,1.42-.74C55.45,172.42,55.74,173.18,55.8,173.28Z"/><path class="cls-24" d="M368.64,108.62c0,2.17-1.09,3.13-3.42,3.08a3.45,3.45,0,0,1-2.88-2.92,3.39,3.39,0,0,1,3.64-3.36C367.76,105.46,368.67,106.56,368.64,108.62Z"/><path class="cls-22" d="M369.37,80.36a18.47,18.47,0,0,1-1.08,2.5c-.16.25-.77.28-1.17.28a.74.74,0,0,1-.51-.52c0-1.49,0-3,.09-4.48.07-.88.84-.81,1.19-.35A18.36,18.36,0,0,1,369.37,80.36Z"/><path class="cls-22" d="M367,162.31a3,3,0,0,1,2,3.92c-.29.75-.31,1.87-1.56,1.78-.27,0-.76-.35-.75-.5C366.78,165.81,366.07,164,367,162.31Z"/></g></g></svg>